<?xml version="1.0" standalone="no"?>
<!DOCTYPE svg PUBLIC "-//W3C//DTD SVG 20010904//EN"
 "http://www.w3.org/TR/2001/REC-SVG-20010904/DTD/svg10.dtd">
<svg version="1.0" xmlns="http://www.w3.org/2000/svg"
 width="500.000000pt" height="500.000000pt" viewBox="0 0 500.000000 500.000000"
 preserveAspectRatio="xMidYMid meet">

<g transform="translate(0.000000,500.000000) scale(0.100000,-0.100000)"
fill="#000000" stroke="none">
<path d="M760 2500 l0 -480 1740 0 1740 0 0 480 0 480 -1740 0 -1740 0 0 -480z
m3450 0 l0 -450 -1715 0 -1715 0 0 450 0 450 1715 0 1715 0 0 -450z"/>
<path d="M850 2500 l0 -390 825 0 825 0 0 105 0 105 -55 0 c-53 0 -55 1 -55
28 0 20 15 42 55 82 54 53 55 55 55 112 0 63 -8 70 -49 42 -22 -16 -24 -15
-44 5 -22 22 -22 22 -2 37 11 8 37 20 57 26 l38 11 0 114 0 113 -825 0 -825 0
0 -390z m420 25 l0 -115 65 0 c51 0 65 -3 65 -15 0 -12 -16 -15 -80 -15 l-80
0 0 130 c0 109 2 130 15 130 12 0 15 -19 15 -115z m240 -15 c0 -109 -2 -130
-15 -130 -13 0 -15 21 -15 130 0 109 2 130 15 130 13 0 15 -21 15 -130z m208
28 l72 -102 0 102 c0 84 3 102 15 102 13 0 15 -21 15 -130 0 -108 -3 -130 -15
-130 -8 0 -45 43 -82 96 l-68 97 -3 -97 c-2 -88 -4 -96 -22 -96 -19 0 -20 7
-20 130 0 168 8 170 108 28z m242 47 l0 -55 34 0 c39 0 70 31 81 80 5 21 13
30 26 30 25 0 24 -4 -11 -75 l-29 -60 35 -62 c31 -56 33 -63 16 -63 -12 0 -30
20 -52 60 -31 54 -37 60 -67 60 l-33 0 0 -60 c0 -47 -3 -60 -15 -60 -13 0 -15
21 -15 130 0 109 2 130 15 130 12 0 15 -13 15 -55z"/>
<path d="M3063 2513 l-50 -128 36 -3 c27 -3 39 1 50 17 19 30 96 30 104 1 4
-16 14 -20 46 -20 l41 0 -26 68 c-14 37 -36 94 -49 127 -22 58 -24 60 -62 63
l-40 3 -50 -128z m106 -4 c14 -41 15 -39 -14 -39 -26 0 -29 9 -19 48 9 31 20
28 33 -9z"/>
<path d="M3320 2510 l0 -130 90 0 90 0 0 35 0 35 -50 0 -50 0 0 95 0 95 -40 0
-40 0 0 -130z"/>
<path d="M3540 2510 l0 -130 90 0 90 0 0 35 0 35 -50 0 -50 0 0 95 0 95 -40 0
-40 0 0 -130z"/>
<path d="M2485 2390 c-3 -5 -1 -10 4 -10 6 0 11 5 11 10 0 6 -2 10 -4 10 -3 0
-8 -4 -11 -10z"/>
</g>
</svg>
